<svg width="24" height="24" viewBox="0 0 24 24" fill="none" xmlns="http://www.w3.org/2000/svg">
<path fill-rule="evenodd" clip-rule="evenodd" d="M17.8138 7.0851C18.0621 6.83687 18.0621 6.43441 17.8138 6.18617C17.5656 5.93794 17.1631 5.93794 16.9149 6.18617L12 11.1011L7.0851 6.18617C6.83687 5.93794 6.43441 5.93794 6.18617 6.18617C5.93794 6.43441 5.93794 6.83687 6.18617 7.0851L11.1011 12L6.18617 16.9149C5.93794 17.1631 5.93794 17.5656 6.18617 17.8138C6.43441 18.0621 6.83687 18.0621 7.0851 17.8138L12 12.8989L16.9149 17.8138C17.1631 18.0621 17.5656 18.0621 17.8138 17.8138C18.0621 17.5656 18.0621 17.1631 17.8138 16.9149L12.8989 12L17.8138 7.0851Z" fill="#0070E0"/>
</svg>
