<svg width="127" height="24" viewBox="0 0 127 24" fill="none" xmlns="http://www.w3.org/2000/svg">
<path d="M14.3228 20.3294V23.7177H0L0 3.8147e-06H4.02167L4.02167 20.3294H14.3228Z" fill="#0F1415"/>
<path fill-rule="evenodd" clip-rule="evenodd" d="M31.3972 18.6353H27.7283C27.5167 19.3412 27.0933 19.9059 26.3172 20.2588C25.6822 20.6824 24.8356 20.8941 23.9183 20.8941C22.5778 20.8941 21.5194 20.4706 20.7433 19.6235C19.9672 18.7765 19.5439 17.7176 19.5439 16.3059V16.0941H31.5383V14.8235C31.5383 12.2824 30.8328 10.2353 29.4217 8.68235C28.0106 7.2 26.1056 6.42353 23.7067 6.42353C21.2372 6.42353 19.3322 7.27059 17.8506 8.82353C16.3689 10.3765 15.6633 12.4941 15.6633 15.2471C15.6633 18 16.3689 20.1176 17.8506 21.6706C19.3322 23.2235 21.3078 24 23.8478 24C25.8233 24 27.5167 23.5059 28.9278 22.5176C30.3389 21.5294 31.1856 20.2588 31.3972 18.6353ZM20.8844 10.5882C21.59 9.81176 22.5778 9.45882 23.7067 9.45882C24.9061 9.45882 25.8233 9.81176 26.5994 10.5882C27.305 11.2941 27.6578 12.3529 27.7283 13.5529H19.6144C19.685 12.3529 20.1083 11.3647 20.8844 10.5882Z" fill="#0F1415"/>
<path fill-rule="evenodd" clip-rule="evenodd" d="M40.3578 23.1529C41.275 23.647 42.3333 23.9294 43.6033 23.9294C45.7906 23.9294 47.4839 23.1529 48.7539 21.6706C50.0239 20.1176 50.6589 18 50.6589 15.3176C50.6589 12.6353 50.0239 10.447 48.7539 8.89409C47.4839 7.27056 45.7906 6.49409 43.6033 6.49409C42.3333 6.49409 41.275 6.70585 40.3578 7.27056C39.4406 7.83527 38.735 8.54115 38.2411 9.52938H38.1706V0.0705585H34.29V23.7176H38.1V20.8235H38.1706C38.6645 21.8823 39.4406 22.5882 40.3578 23.1529ZM42.4039 9.67056C43.6739 9.67056 44.7322 10.1647 45.5083 11.1529C46.2845 12.2117 46.6372 13.4823 46.6372 15.1764C46.6372 16.8706 46.2845 18.2117 45.5083 19.2C44.7322 20.1882 43.6739 20.6823 42.4039 20.6823C41.1339 20.6823 40.0756 20.1882 39.2995 19.2C38.5233 18.2117 38.1 16.9411 38.1 15.247C38.1 13.5529 38.5233 12.2117 39.2995 11.2235C40.0756 10.1647 41.1339 9.67056 42.4039 9.67056Z" fill="#0F1415"/>
<path fill-rule="evenodd" clip-rule="evenodd" d="M68.2272 18.6353H64.5583C64.3467 19.3412 63.8528 19.9059 63.2178 20.2588C62.5828 20.6824 61.7361 20.8941 60.8189 20.8941C59.4783 20.8941 58.42 20.4706 57.6439 19.6235C56.8678 18.7765 56.4444 17.7176 56.4444 16.3059V16.0941H68.3683V14.8235C68.3683 12.2824 67.6628 10.2353 66.2517 8.68235C64.8406 7.2 62.9356 6.42353 60.5367 6.42353C58.0672 6.42353 56.1622 7.2 54.6806 8.82353C53.1989 10.3765 52.4933 12.4941 52.4933 15.2471C52.4933 18 53.1989 20.1176 54.6806 21.6706C56.1622 23.2235 58.1378 24 60.6778 24C62.7239 24 64.4172 23.5059 65.7578 22.5176C67.1689 21.5294 67.945 20.1882 68.2272 18.6353ZM57.7144 10.5882C58.42 9.81176 59.4078 9.45882 60.5367 9.45882C61.7361 9.45882 62.6533 9.81176 63.4294 10.5882C64.135 11.2941 64.4878 12.3529 64.5583 13.5529H56.4444C56.515 12.3529 56.9383 11.3647 57.7144 10.5882Z" fill="#0F1415"/>
<path fill-rule="evenodd" clip-rule="evenodd" d="M72.2489 21.5294C73.5189 23.1529 75.2828 23.9294 77.3994 23.9294C78.5989 23.9294 79.7278 23.647 80.7156 23.0823C81.6328 22.5176 82.3383 21.8117 82.8322 20.8235H82.9028V23.7176H86.7128V0.141148H82.8322V9.52938H82.7617C82.2678 8.54115 81.5622 7.83527 80.645 7.27056C79.7278 6.70585 78.5989 6.4235 77.3994 6.4235C75.2828 6.4235 73.5894 7.19997 72.2489 8.8235C70.9083 10.447 70.2733 12.5647 70.2733 15.1764C70.2733 17.7882 70.9789 19.9059 72.2489 21.5294ZM75.4239 11.1529C76.2 10.1647 77.2583 9.67056 78.5283 9.67056C79.7983 9.67056 80.8567 10.1647 81.6328 11.1529C82.4089 12.2117 82.8322 13.5529 82.8322 15.1764C82.8322 16.8706 82.4089 18.2117 81.6328 19.2C80.8567 20.1882 79.7983 20.6823 78.5283 20.6823C77.2583 20.6823 76.2 20.1882 75.4239 19.2C74.6478 18.2117 74.2244 16.8706 74.2244 15.1764C74.2244 13.4823 74.6478 12.1411 75.4239 11.1529Z" fill="#0F1415"/>
<path fill-rule="evenodd" clip-rule="evenodd" d="M104.987 18.6353H101.318C101.106 19.3412 100.683 19.9059 99.9067 20.2588C99.2717 20.6824 98.425 20.8941 97.5078 20.8941C96.1672 20.8941 95.1089 20.4706 94.3328 19.6235C93.5567 18.7765 93.1333 17.7176 93.1333 16.3059V16.0941H105.128V14.8235C105.128 12.2824 104.422 10.2353 103.011 8.68235C101.6 7.2 99.695 6.42353 97.2961 6.42353C94.8267 6.42353 92.9217 7.2 91.44 8.82353C89.9583 10.3765 89.2528 12.4941 89.2528 15.2471C89.2528 18 89.9583 20.1176 91.44 21.6706C92.9217 23.2235 94.8972 24 97.4372 24C99.4128 24 101.106 23.5059 102.517 22.5176C103.928 21.5294 104.704 20.1882 104.987 18.6353ZM94.4739 10.5882C95.1794 9.81176 96.1672 9.45882 97.2961 9.45882C98.4956 9.45882 99.4128 9.81176 100.189 10.5882C100.894 11.2941 101.247 12.3529 101.318 13.5529H93.2039C93.2744 12.3529 93.6978 11.3647 94.4739 10.5882Z" fill="#0F1415"/>
<path d="M122.061 6.63527L115.993 23.7882H111.689L105.622 6.63527H109.784L113.806 20.1176H113.877L117.898 6.63527H122.061Z" fill="#0F1415"/>
<path d="M122.957 0.0683594L126.98 0.0683594V4.09003L122.957 4.09003V0.0683594Z" fill="#AC0033"/>
</svg>
